REM MD5 a34e74e83db179cf2230fcb001b2ed89
FILE "Alex Ferguson's Player Manager 2002 (Europe).bin" BINARY
  TRACK 01 MODE2/2352
    INDEX 01 00:00:00
  TRACK 02 AUDIO
    INDEX 00 06:01:10
    INDEX 01 06:03:10
  TRACK 03 AUDIO
    INDEX 00 06:12:08
    INDEX 01 06:14:08
  TRACK 04 AUDIO
    INDEX 00 07:09:17
    INDEX 01 07:11:17
  TRACK 05 AUDIO
    INDEX 00 09:44:45
    INDEX 01 09:46:45
REM LEADOUT 10:46:45
